<svg width="33" height="22" viewBox="0 0 33 22" fill="none" xmlns="http://www.w3.org/2000/svg">
<g id="GitHub-Logo.wine 1">
<path id="Vector" d="M14.0101 15.4763C14.0101 15.5369 13.9404 15.5854 13.8524 15.5854C13.7523 15.5945 13.6826 15.546 13.6826 15.4763C13.6826 15.4156 13.7523 15.3671 13.8403 15.3671C13.9313 15.358 14.0101 15.4065 14.0101 15.4763ZM13.0669 15.3398C13.0457 15.4004 13.1064 15.4702 13.1973 15.4884C13.2762 15.5187 13.3672 15.4884 13.3854 15.4277C13.4036 15.3671 13.3459 15.2973 13.255 15.27C13.1761 15.2488 13.0882 15.2791 13.0669 15.3398ZM14.4074 15.2882C14.3195 15.3095 14.2588 15.3671 14.2679 15.4368C14.277 15.4975 14.3559 15.5369 14.4468 15.5157C14.5348 15.4945 14.5954 15.4368 14.5863 15.3762C14.5772 15.3186 14.4954 15.2791 14.4074 15.2882ZM16.403 3.66667C12.1965 3.66667 8.97876 6.86017 8.97876 11.0666C8.97876 14.43 11.0956 17.3081 14.1193 18.321C14.5075 18.3907 14.644 18.1512 14.644 17.954C14.644 17.766 14.6349 16.7288 14.6349 16.0919C14.6349 16.0919 12.5119 16.5468 12.0661 15.1881C12.0661 15.1881 11.7204 14.3056 11.223 14.0782C11.223 14.0782 10.5285 13.602 11.2715 13.6111C11.2715 13.6111 12.0267 13.6718 12.4422 14.3936C13.1064 15.5642 14.2194 15.2276 14.6531 15.0274C14.7228 14.5422 14.9199 14.2055 15.1383 14.0054C13.443 13.8173 11.7325 13.5717 11.7325 10.6542C11.7325 9.82015 11.963 9.40163 12.4482 8.86787C12.3694 8.67074 12.1116 7.85795 12.5271 6.80862C13.1609 6.61149 14.6197 7.62746 14.6197 7.62746C15.2263 7.45763 15.8783 7.36968 16.5243 7.36968C17.1703 7.36968 17.8223 7.45763 18.4289 7.62746C18.4289 7.62746 19.8876 6.60845 20.5215 6.80862C20.937 7.86099 20.6792 8.67074 20.6003 8.86787C21.0856 9.40466 21.3828 9.82319 21.3828 10.6542C21.3828 13.5808 19.5965 13.8143 17.9012 14.0054C18.1802 14.245 18.4167 14.6999 18.4167 15.4126C18.4167 16.4346 18.4076 17.6993 18.4076 17.948C18.4076 18.1451 18.5471 18.3847 18.9323 18.3149C21.9651 17.3081 24.0213 14.43 24.0213 11.0666C24.0213 6.86017 20.6094 3.66667 16.403 3.66667ZM11.9266 14.1267C11.8872 14.157 11.8963 14.2268 11.9478 14.2844C11.9964 14.3329 12.0661 14.3541 12.1055 14.3147C12.145 14.2844 12.1359 14.2146 12.0843 14.157C12.0358 14.1085 11.966 14.0873 11.9266 14.1267ZM11.5991 13.881C11.5778 13.9205 11.6082 13.969 11.6688 13.9993C11.7173 14.0296 11.778 14.0205 11.7992 13.9781C11.8205 13.9386 11.7901 13.8901 11.7295 13.8598C11.6688 13.8416 11.6203 13.8507 11.5991 13.881ZM12.5817 14.9607C12.5332 15.0001 12.5514 15.0911 12.6211 15.1487C12.6909 15.2185 12.7788 15.2276 12.8182 15.1791C12.8577 15.1396 12.8395 15.0486 12.7788 14.991C12.7121 14.9213 12.6211 14.9122 12.5817 14.9607ZM12.2359 14.5149C12.1874 14.5452 12.1874 14.6241 12.2359 14.6938C12.2845 14.7636 12.3664 14.7939 12.4058 14.7636C12.4543 14.7241 12.4543 14.6453 12.4058 14.5755C12.3633 14.5058 12.2845 14.4754 12.2359 14.5149Z" fill="#696969"/>
</g>
</svg>
