<svg width="31" height="21" viewBox="0 0 31 21" fill="none" xmlns="http://www.w3.org/2000/svg">
<g id="Instagram-Glyph-Color-Logo.wine 1">
<g id="Group">
<path id="Vector" d="M20.0043 6.76364C20.0043 6.29836 19.6332 5.92266 19.177 5.92266C18.7208 5.92266 18.3494 6.29836 18.3494 6.76364C18.3494 7.22721 18.7208 7.60291 19.177 7.60291C19.6332 7.60291 20.0043 7.22721 20.0043 6.76364Z" fill="#696969"/>
<path id="Vector_2" d="M21.1067 13.3283C21.0761 14.0108 20.9637 14.3817 20.8704 14.628C20.7451 14.9545 20.5957 15.1881 20.3533 15.433C20.1136 15.6779 19.8838 15.8294 19.5624 15.9553C19.32 16.0515 18.9537 16.166 18.282 16.1986C17.5558 16.2311 17.3406 16.238 15.4991 16.238C13.6593 16.238 13.4424 16.2311 12.7163 16.1986C12.0446 16.166 11.6799 16.0515 11.4375 15.9553C11.1144 15.8294 10.8863 15.6779 10.6453 15.433C10.4025 15.1881 10.2531 14.9545 10.1295 14.628C10.0362 14.3817 9.92217 14.0108 9.89322 13.3283C9.85783 12.5904 9.85134 12.3683 9.85134 10.5009C9.85134 8.62966 9.85783 8.40928 9.89322 7.67138C9.92217 6.98885 10.0362 6.61834 10.1295 6.36994C10.2531 6.04372 10.4025 5.81159 10.6453 5.56666C10.8863 5.32209 11.1144 5.17021 11.4375 5.04292C11.6799 4.9464 12.0446 4.83361 12.7163 4.8011C13.4424 4.76857 13.6593 4.76026 15.4991 4.76026C17.3406 4.76026 17.5558 4.76857 18.282 4.8011C18.9537 4.83361 19.32 4.9464 19.5624 5.04292C19.8838 5.17021 20.1136 5.32209 20.3533 5.56666C20.5957 5.81159 20.7451 6.04372 20.8704 6.36994C20.9637 6.61834 21.0761 6.98885 21.1067 7.67138C21.1404 8.40928 21.1486 8.62966 21.1486 10.5009C21.1486 12.3683 21.1404 12.5904 21.1067 13.3283ZM22.347 7.61396C22.3133 6.8681 22.1975 6.35852 22.0256 5.91469C21.8506 5.45424 21.616 5.06401 21.232 4.67379C20.8497 4.2853 20.4656 4.04694 20.0125 3.86705C19.574 3.69407 19.0742 3.57506 18.3398 3.54255C17.6055 3.50656 17.3709 3.5 15.4991 3.5C13.629 3.5 13.3927 3.50656 12.6584 3.54255C11.9257 3.57506 11.4263 3.69407 10.9857 3.86705C10.5343 4.04694 10.1503 4.2853 9.76795 4.67379C9.38392 5.06401 9.14934 5.45424 8.97264 5.91469C8.80241 6.35852 8.68666 6.8681 8.65125 7.61396C8.61925 8.36016 8.61108 8.59886 8.61108 10.5009C8.61108 12.4011 8.61925 12.6395 8.65125 13.3857C8.68666 14.1302 8.80241 14.6394 8.97264 15.0853C9.14934 15.544 9.38392 15.936 9.76795 16.3245C10.1503 16.713 10.5343 16.9531 10.9857 17.1326C11.4263 17.3056 11.9257 17.4232 12.6584 17.4574C13.3927 17.4917 13.629 17.5 15.4991 17.5C17.3709 17.5 17.6055 17.4917 18.3398 17.4574C19.0742 17.4232 19.574 17.3056 20.0125 17.1326C20.4656 16.9531 20.8497 16.713 21.232 16.3245C21.616 15.936 21.8506 15.544 22.0256 15.0853C22.1975 14.6394 22.3133 14.1302 22.347 13.3857C22.3807 12.6395 22.3889 12.4011 22.3889 10.5009C22.3889 8.59886 22.3807 8.36016 22.347 7.61396Z" fill="#696969"/>
<path id="Vector_3" d="M15.4991 12.8322C14.2316 12.8322 13.2031 11.7888 13.2031 10.5008C13.2031 9.21082 14.2316 8.16609 15.4991 8.16609C16.767 8.16609 17.7968 9.21082 17.7968 10.5008C17.7968 11.7888 16.767 12.8322 15.4991 12.8322ZM15.4991 6.90408C13.5452 6.90408 11.9628 8.51547 11.9628 10.5008C11.9628 12.4845 13.5452 14.0942 15.4991 14.0942C17.453 14.0942 19.0371 12.4845 19.0371 10.5008C19.0371 8.51547 17.453 6.90408 15.4991 6.90408Z" fill="#696969"/>
</g>
</g>
</svg>
